<svg xmlns="http://www.w3.org/2000/svg" width="48" height="48" viewBox="0 0 48 48" version="1.1"><path d="M 20 18.500 C 20 20.929, 19.800 21, 13 21 L 6 21 6 24 L 6 27 13 27 C 19.800 27, 20 27.071, 20 29.500 C 20 30.875, 20.362 32, 20.804 32 C 22.201 32, 28 25.472, 28 23.899 C 28 22.416, 22.072 16, 20.702 16 C 20.316 16, 20 17.125, 20 18.500" stroke="none" fill="#54e4fc" fill-rule="evenodd"/><path d="M 9 12.500 L 9 21 14.500 21 C 19.700 21, 20 20.864, 20 18.500 C 20 17.125, 20.362 16, 20.804 16 C 22.201 16, 28 22.528, 28 24.101 C 28 25.584, 22.072 32, 20.702 32 C 20.316 32, 20 30.875, 20 29.500 C 20 27.136, 19.700 27, 14.500 27 L 9 27 9 35.500 L 9 44 24 44 L 39 44 39 24 L 39 4 24 4 L 9 4 9 12.500" stroke="none" fill="#138de4" fill-rule="evenodd"/></svg>